<mxfile host="app.diagrams.net" agent="Mozilla/5.0 (Windows NT 10.0; Win64; x64) AppleWebKit/537.36 (KHTML, like Gecko) Chrome/140.0.0.0 Safari/537.36" version="28.2.3">
  <diagram name="Pagina-1" id="whm-3fSn628gsJxSRbTG">
    <mxGraphModel dx="3143" dy="2418" grid="1" gridSize="10" guides="1" tooltips="1" connect="1" arrows="1" fold="1" page="1" pageScale="1" pageWidth="827" pageHeight="1169" math="0" shadow="0">
      <root>
        <mxCell id="0" />
        <mxCell id="1" parent="0" />
        <mxCell id="JDWId8_qGixvHowoIR90-12" value="" style="strokeWidth=2;html=1;shape=mxgraph.flowchart.start_2;whiteSpace=wrap;" vertex="1" parent="1">
          <mxGeometry x="190" y="-1030" width="100" height="100" as="geometry" />
        </mxCell>
        <mxCell id="JDWId8_qGixvHowoIR90-13" value="" style="endArrow=classic;html=1;rounded=0;" edge="1" parent="1">
          <mxGeometry width="50" height="50" relative="1" as="geometry">
            <mxPoint x="240" y="-930" as="sourcePoint" />
            <mxPoint x="240.5" y="-840" as="targetPoint" />
          </mxGeometry>
        </mxCell>
        <mxCell id="JDWId8_qGixvHowoIR90-14" value="" style="strokeWidth=2;html=1;shape=mxgraph.flowchart.start_2;whiteSpace=wrap;" vertex="1" parent="1">
          <mxGeometry x="190" y="-840" width="100" height="100" as="geometry" />
        </mxCell>
        <mxCell id="JDWId8_qGixvHowoIR90-15" value="IF User not exist" style="text;html=1;align=center;verticalAlign=middle;whiteSpace=wrap;rounded=0;" vertex="1" parent="1">
          <mxGeometry x="205" y="-812.5" width="70" height="45" as="geometry" />
        </mxCell>
        <mxCell id="JDWId8_qGixvHowoIR90-16" value="" style="endArrow=classic;html=1;rounded=0;exitX=1;exitY=0.5;exitDx=0;exitDy=0;" edge="1" parent="1">
          <mxGeometry width="50" height="50" relative="1" as="geometry">
            <mxPoint x="290" y="-799.5" as="sourcePoint" />
            <mxPoint x="405" y="-800" as="targetPoint" />
          </mxGeometry>
        </mxCell>
        <mxCell id="JDWId8_qGixvHowoIR90-17" value="" style="strokeWidth=2;html=1;shape=mxgraph.flowchart.start_2;whiteSpace=wrap;" vertex="1" parent="1">
          <mxGeometry x="410" y="-850" width="240" height="110" as="geometry" />
        </mxCell>
        <mxCell id="JDWId8_qGixvHowoIR90-21" value="throw IllegalArgumentExeption" style="text;html=1;align=center;verticalAlign=middle;whiteSpace=wrap;rounded=0;" vertex="1" parent="1">
          <mxGeometry x="440" y="-825" width="180" height="60" as="geometry" />
        </mxCell>
        <mxCell id="JDWId8_qGixvHowoIR90-22" value="" style="endArrow=classic;html=1;rounded=0;" edge="1" parent="1">
          <mxGeometry width="50" height="50" relative="1" as="geometry">
            <mxPoint x="239.5" y="-740" as="sourcePoint" />
            <mxPoint x="240" y="-650" as="targetPoint" />
          </mxGeometry>
        </mxCell>
        <mxCell id="JDWId8_qGixvHowoIR90-23" value="" style="strokeWidth=2;html=1;shape=mxgraph.flowchart.start_2;whiteSpace=wrap;" vertex="1" parent="1">
          <mxGeometry x="160" y="-650" width="160" height="110" as="geometry" />
        </mxCell>
        <mxCell id="JDWId8_qGixvHowoIR90-24" value="IF datiImpiegatoByUser is NULL" style="text;html=1;align=center;verticalAlign=middle;whiteSpace=wrap;rounded=0;" vertex="1" parent="1">
          <mxGeometry x="180" y="-625" width="130" height="50" as="geometry" />
        </mxCell>
        <mxCell id="JDWId8_qGixvHowoIR90-26" value="TRUE" style="text;html=1;align=center;verticalAlign=middle;whiteSpace=wrap;rounded=0;" vertex="1" parent="1">
          <mxGeometry x="310" y="-840" width="60" height="30" as="geometry" />
        </mxCell>
        <mxCell id="JDWId8_qGixvHowoIR90-29" value="FALSE" style="text;html=1;align=center;verticalAlign=middle;whiteSpace=wrap;rounded=0;" vertex="1" parent="1">
          <mxGeometry x="250" y="-710" width="60" height="30" as="geometry" />
        </mxCell>
        <mxCell id="JDWId8_qGixvHowoIR90-31" value="" style="endArrow=classic;html=1;rounded=0;exitX=1;exitY=0.5;exitDx=0;exitDy=0;" edge="1" parent="1">
          <mxGeometry width="50" height="50" relative="1" as="geometry">
            <mxPoint x="320" y="-595" as="sourcePoint" />
            <mxPoint x="435" y="-595.5" as="targetPoint" />
          </mxGeometry>
        </mxCell>
        <mxCell id="JDWId8_qGixvHowoIR90-32" value="" style="strokeWidth=2;html=1;shape=mxgraph.flowchart.start_2;whiteSpace=wrap;" vertex="1" parent="1">
          <mxGeometry x="440" y="-650" width="240" height="110" as="geometry" />
        </mxCell>
        <mxCell id="JDWId8_qGixvHowoIR90-33" value="throw IllegalArgumentExeption" style="text;html=1;align=center;verticalAlign=middle;whiteSpace=wrap;rounded=0;" vertex="1" parent="1">
          <mxGeometry x="480" y="-630" width="180" height="60" as="geometry" />
        </mxCell>
        <mxCell id="JDWId8_qGixvHowoIR90-34" value="" style="endArrow=classic;html=1;rounded=0;" edge="1" parent="1">
          <mxGeometry width="50" height="50" relative="1" as="geometry">
            <mxPoint x="244.5" y="-540" as="sourcePoint" />
            <mxPoint x="245" y="-450" as="targetPoint" />
          </mxGeometry>
        </mxCell>
        <mxCell id="JDWId8_qGixvHowoIR90-35" value="" style="strokeWidth=2;html=1;shape=mxgraph.flowchart.start_2;whiteSpace=wrap;" vertex="1" parent="1">
          <mxGeometry x="165" y="-450" width="160" height="110" as="geometry" />
        </mxCell>
        <mxCell id="JDWId8_qGixvHowoIR90-36" value="CICLO SUI CONTATTI" style="text;html=1;align=center;verticalAlign=middle;whiteSpace=wrap;rounded=0;" vertex="1" parent="1">
          <mxGeometry x="180" y="-420" width="130" height="50" as="geometry" />
        </mxCell>
        <mxCell id="JDWId8_qGixvHowoIR90-37" value="FALSE" style="text;html=1;align=center;verticalAlign=middle;whiteSpace=wrap;rounded=0;" vertex="1" parent="1">
          <mxGeometry x="250" y="-520" width="60" height="30" as="geometry" />
        </mxCell>
        <mxCell id="JDWId8_qGixvHowoIR90-38" value="TRUE" style="text;html=1;align=center;verticalAlign=middle;whiteSpace=wrap;rounded=0;" vertex="1" parent="1">
          <mxGeometry x="350" y="-430" width="60" height="30" as="geometry" />
        </mxCell>
        <mxCell id="JDWId8_qGixvHowoIR90-47" value="" style="endArrow=classic;html=1;rounded=0;exitX=1;exitY=0.5;exitDx=0;exitDy=0;" edge="1" parent="1">
          <mxGeometry width="50" height="50" relative="1" as="geometry">
            <mxPoint x="325" y="-395" as="sourcePoint" />
            <mxPoint x="440" y="-395.5" as="targetPoint" />
          </mxGeometry>
        </mxCell>
        <mxCell id="JDWId8_qGixvHowoIR90-48" value="" style="strokeWidth=2;html=1;shape=mxgraph.flowchart.start_2;whiteSpace=wrap;" vertex="1" parent="1">
          <mxGeometry x="440" y="-450" width="160" height="110" as="geometry" />
        </mxCell>
        <mxCell id="JDWId8_qGixvHowoIR90-50" value="TRUE" style="text;html=1;align=center;verticalAlign=middle;whiteSpace=wrap;rounded=0;" vertex="1" parent="1">
          <mxGeometry x="530" y="-250" width="60" height="30" as="geometry" />
        </mxCell>
        <mxCell id="JDWId8_qGixvHowoIR90-51" value="" style="endArrow=classic;html=1;rounded=0;" edge="1" parent="1">
          <mxGeometry width="50" height="50" relative="1" as="geometry">
            <mxPoint x="160" y="-400" as="sourcePoint" />
            <mxPoint x="40" y="-180" as="targetPoint" />
            <Array as="points">
              <mxPoint x="40" y="-400" />
              <mxPoint x="40" y="-280" />
            </Array>
          </mxGeometry>
        </mxCell>
        <mxCell id="JDWId8_qGixvHowoIR90-52" value="FALSE" style="text;html=1;align=center;verticalAlign=middle;whiteSpace=wrap;rounded=0;" vertex="1" parent="1">
          <mxGeometry x="60" y="-440" width="60" height="30" as="geometry" />
        </mxCell>
        <mxCell id="JDWId8_qGixvHowoIR90-53" value="" style="strokeWidth=2;html=1;shape=mxgraph.flowchart.start_2;whiteSpace=wrap;" vertex="1" parent="1">
          <mxGeometry x="-40" y="-180" width="160" height="110" as="geometry" />
        </mxCell>
        <mxCell id="JDWId8_qGixvHowoIR90-56" value="" style="endArrow=classic;html=1;rounded=0;entryX=0.452;entryY=1.029;entryDx=0;entryDy=0;entryPerimeter=0;exitX=0.254;exitY=0.942;exitDx=0;exitDy=0;exitPerimeter=0;" edge="1" parent="1" source="JDWId8_qGixvHowoIR90-48" target="JDWId8_qGixvHowoIR90-35">
          <mxGeometry width="50" height="50" relative="1" as="geometry">
            <mxPoint x="480" y="-340" as="sourcePoint" />
            <mxPoint x="530" y="-400" as="targetPoint" />
            <Array as="points">
              <mxPoint x="480" y="-280" />
              <mxPoint x="360" y="-280" />
              <mxPoint x="237" y="-280" />
            </Array>
          </mxGeometry>
        </mxCell>
        <mxCell id="JDWId8_qGixvHowoIR90-57" value="FALSE" style="text;html=1;align=center;verticalAlign=middle;whiteSpace=wrap;rounded=0;" vertex="1" parent="1">
          <mxGeometry x="335" y="-320" width="60" height="30" as="geometry" />
        </mxCell>
        <mxCell id="JDWId8_qGixvHowoIR90-58" value="&amp;nbsp;tipoContattiRequest already exist" style="text;html=1;align=center;verticalAlign=middle;whiteSpace=wrap;rounded=0;" vertex="1" parent="1">
          <mxGeometry x="460" y="-440" width="120" height="80" as="geometry" />
        </mxCell>
        <mxCell id="JDWId8_qGixvHowoIR90-59" value="" style="endArrow=classic;html=1;rounded=0;" edge="1" parent="1">
          <mxGeometry width="50" height="50" relative="1" as="geometry">
            <mxPoint x="520" y="-340" as="sourcePoint" />
            <mxPoint x="520" y="-120" as="targetPoint" />
          </mxGeometry>
        </mxCell>
        <mxCell id="JDWId8_qGixvHowoIR90-60" value="" style="strokeWidth=2;html=1;shape=mxgraph.flowchart.start_2;whiteSpace=wrap;" vertex="1" parent="1">
          <mxGeometry x="440" y="-120" width="160" height="110" as="geometry" />
        </mxCell>
        <mxCell id="JDWId8_qGixvHowoIR90-61" value="" style="strokeWidth=2;html=1;shape=mxgraph.flowchart.start_2;whiteSpace=wrap;" vertex="1" parent="1">
          <mxGeometry x="190" y="60" width="160" height="110" as="geometry" />
        </mxCell>
        <mxCell id="JDWId8_qGixvHowoIR90-62" value="Aggiungi nuovo tipo di contatto nei contatti" style="text;html=1;align=center;verticalAlign=middle;whiteSpace=wrap;rounded=0;" vertex="1" parent="1">
          <mxGeometry x="-10" y="-155" width="80" height="60" as="geometry" />
        </mxCell>
        <mxCell id="JDWId8_qGixvHowoIR90-63" value="Modifica il valore del tipoContatto già esistente nei contatti" style="text;html=1;align=center;verticalAlign=middle;whiteSpace=wrap;rounded=0;" vertex="1" parent="1">
          <mxGeometry x="450" y="-95" width="140" height="60" as="geometry" />
        </mxCell>
        <mxCell id="JDWId8_qGixvHowoIR90-64" value="" style="endArrow=classic;html=1;rounded=0;entryX=0.017;entryY=0.332;entryDx=0;entryDy=0;entryPerimeter=0;" edge="1" parent="1" target="JDWId8_qGixvHowoIR90-61">
          <mxGeometry width="50" height="50" relative="1" as="geometry">
            <mxPoint x="60" y="-70" as="sourcePoint" />
            <mxPoint x="110" y="-120" as="targetPoint" />
          </mxGeometry>
        </mxCell>
        <mxCell id="JDWId8_qGixvHowoIR90-65" value="" style="endArrow=classic;html=1;rounded=0;entryX=0.945;entryY=0.276;entryDx=0;entryDy=0;entryPerimeter=0;" edge="1" parent="1" target="JDWId8_qGixvHowoIR90-61">
          <mxGeometry width="50" height="50" relative="1" as="geometry">
            <mxPoint x="460" y="-30" as="sourcePoint" />
            <mxPoint x="390" y="40" as="targetPoint" />
          </mxGeometry>
        </mxCell>
        <mxCell id="JDWId8_qGixvHowoIR90-66" value="" style="endArrow=classic;html=1;rounded=0;" edge="1" parent="1">
          <mxGeometry width="50" height="50" relative="1" as="geometry">
            <mxPoint x="270" y="170" as="sourcePoint" />
            <mxPoint x="270" y="260" as="targetPoint" />
          </mxGeometry>
        </mxCell>
        <mxCell id="JDWId8_qGixvHowoIR90-67" value="" style="strokeWidth=2;html=1;shape=mxgraph.flowchart.start_2;whiteSpace=wrap;" vertex="1" parent="1">
          <mxGeometry x="190" y="260" width="160" height="110" as="geometry" />
        </mxCell>
        <mxCell id="JDWId8_qGixvHowoIR90-68" value="&lt;font style=&quot;font-size: 18px;&quot;&gt;ni&lt;/font&gt;" style="text;html=1;align=center;verticalAlign=middle;whiteSpace=wrap;rounded=0;" vertex="1" parent="1">
          <mxGeometry x="150" y="-990" width="30" height="20" as="geometry" />
        </mxCell>
        <mxCell id="JDWId8_qGixvHowoIR90-69" value="&lt;font style=&quot;font-size: 18px;&quot;&gt;1&lt;/font&gt;" style="text;html=1;align=center;verticalAlign=middle;whiteSpace=wrap;rounded=0;" vertex="1" parent="1">
          <mxGeometry x="150" y="-807.5" width="30" height="35" as="geometry" />
        </mxCell>
        <mxCell id="JDWId8_qGixvHowoIR90-70" value="&lt;font style=&quot;font-size: 18px;&quot;&gt;6&lt;/font&gt;" style="text;html=1;align=center;verticalAlign=middle;whiteSpace=wrap;rounded=0;" vertex="1" parent="1">
          <mxGeometry x="510" y="-880" width="40" height="20" as="geometry" />
        </mxCell>
        <mxCell id="JDWId8_qGixvHowoIR90-71" value="&lt;font style=&quot;font-size: 18px;&quot;&gt;2&lt;/font&gt;" style="text;html=1;align=center;verticalAlign=middle;whiteSpace=wrap;rounded=0;" vertex="1" parent="1">
          <mxGeometry x="130" y="-604" width="30" height="20" as="geometry" />
        </mxCell>
        <mxCell id="JDWId8_qGixvHowoIR90-73" value="&lt;font style=&quot;font-size: 18px;&quot;&gt;3&lt;/font&gt;" style="text;html=1;align=center;verticalAlign=middle;whiteSpace=wrap;rounded=0;" vertex="1" parent="1">
          <mxGeometry x="150" y="-450" width="30" height="20" as="geometry" />
        </mxCell>
        <mxCell id="JDWId8_qGixvHowoIR90-74" value="&lt;font style=&quot;font-size: 18px;&quot;&gt;4&lt;/font&gt;" style="text;html=1;align=center;verticalAlign=middle;whiteSpace=wrap;rounded=0;" vertex="1" parent="1">
          <mxGeometry x="-50" y="-190" width="30" height="20" as="geometry" />
        </mxCell>
        <mxCell id="JDWId8_qGixvHowoIR90-76" value="&lt;font style=&quot;font-size: 18px;&quot;&gt;5&lt;/font&gt;" style="text;html=1;align=center;verticalAlign=middle;whiteSpace=wrap;rounded=0;" vertex="1" parent="1">
          <mxGeometry x="160" y="130" width="30" height="20" as="geometry" />
        </mxCell>
        <mxCell id="JDWId8_qGixvHowoIR90-77" value="&lt;font style=&quot;font-size: 18px;&quot;&gt;nf&lt;/font&gt;" style="text;html=1;align=center;verticalAlign=middle;whiteSpace=wrap;rounded=0;" vertex="1" parent="1">
          <mxGeometry x="150" y="305" width="30" height="20" as="geometry" />
        </mxCell>
        <mxCell id="JDWId8_qGixvHowoIR90-78" value="&lt;font style=&quot;font-size: 18px;&quot;&gt;7&lt;/font&gt;" style="text;html=1;align=center;verticalAlign=middle;whiteSpace=wrap;rounded=0;" vertex="1" parent="1">
          <mxGeometry x="545" y="-680" width="30" height="20" as="geometry" />
        </mxCell>
        <mxCell id="JDWId8_qGixvHowoIR90-79" value="&lt;font style=&quot;font-size: 18px;&quot;&gt;8&lt;/font&gt;" style="text;html=1;align=center;verticalAlign=middle;whiteSpace=wrap;rounded=0;" vertex="1" parent="1">
          <mxGeometry x="515" y="-480" width="30" height="20" as="geometry" />
        </mxCell>
        <mxCell id="JDWId8_qGixvHowoIR90-80" value="&lt;font style=&quot;font-size: 18px;&quot;&gt;9&lt;/font&gt;" style="text;html=1;align=center;verticalAlign=middle;whiteSpace=wrap;rounded=0;" vertex="1" parent="1">
          <mxGeometry x="555" y="-135" width="30" height="20" as="geometry" />
        </mxCell>
        <mxCell id="JDWId8_qGixvHowoIR90-81" value="" style="endArrow=classic;html=1;rounded=0;entryX=1.004;entryY=0.449;entryDx=0;entryDy=0;entryPerimeter=0;" edge="1" parent="1" target="JDWId8_qGixvHowoIR90-67">
          <mxGeometry width="50" height="50" relative="1" as="geometry">
            <mxPoint x="650" y="-800" as="sourcePoint" />
            <mxPoint x="810" y="-800" as="targetPoint" />
            <Array as="points">
              <mxPoint x="800" y="-800" />
              <mxPoint x="790" y="315" />
            </Array>
          </mxGeometry>
        </mxCell>
        <mxCell id="JDWId8_qGixvHowoIR90-82" value="" style="endArrow=classic;html=1;rounded=0;" edge="1" parent="1">
          <mxGeometry width="50" height="50" relative="1" as="geometry">
            <mxPoint x="680" y="-600" as="sourcePoint" />
            <mxPoint x="800" y="-600" as="targetPoint" />
          </mxGeometry>
        </mxCell>
      </root>
    </mxGraphModel>
  </diagram>
</mxfile>
